<svg width="31" height="31" viewBox="0 0 31 31" fill="none" xmlns="http://www.w3.org/2000/svg">
<rect width="31" height="31" fill="#8FBDE8"/>
<g id="Login" clip-path="url(#clip0_0_1)">
<rect width="428" height="926" transform="translate(-238 -687)" fill="white"/>
<path id="Rectangle 129" d="M123.601 -4H0.600586C-4.92226 -4 -9.39941 0.477152 -9.39941 6V31C-9.39941 36.5228 -4.92226 41 0.600586 41H123.601C129.123 41 133.601 36.5228 133.601 31V6C133.601 0.477152 129.123 -4 123.601 -4Z" fill="#454B60"/>
<path id="facebook" d="M18.1004 30.8004V20.1003H21.7004L22.4004 15.7004H18.1004V12.8004C18.1004 11.6004 18.7004 10.4004 20.6004 10.4004H22.5004V6.70038C22.5004 6.70038 20.8004 6.40039 19.1004 6.40039C15.6004 6.40039 13.3004 8.50035 13.3004 12.3004V15.7004H9.40039V20.1003H13.3004V30.8004C6.00038 29.7004 0.400391 23.3004 0.400391 15.7004C0.400391 7.20038 7.30041 0.400391 15.7004 0.400391C24.2004 0.400391 31.0004 7.20038 31.0004 15.7004C31.0004 23.3004 25.4004 29.7004 18.1004 30.8004Z" fill="white"/>
</g>
<defs>
<clipPath id="clip0_0_1">
<rect width="428" height="926" fill="white" transform="translate(-238 -687)"/>
</clipPath>
</defs>
</svg>
