<svg width="84" height="56" viewBox="0 0 84 56" fill="none" xmlns="http://www.w3.org/2000/svg">
<path fill-rule="evenodd" clip-rule="evenodd" d="M83.8002 7V48.8C83.8002 52.7 80.7002 55.8 76.9002 55.8H7.1002C3.3002 55.8 0.200195 52.7 0.200195 48.8V7C0.200195 3.1 3.3002 0 7.1002 0H76.9002C80.7002 0 83.8002 3.1 83.8002 7ZM81.5002 7C81.5002 4.4 79.4002 2.3 76.9002 2.3H7.1002C4.6002 2.3 2.5002 4.4 2.5002 7V48.8C2.5002 51.4 4.6002 53.5 7.1002 53.5L25.3002 29.3C26.6002 27.5 29.5002 27.5 30.8002 29.3L36.2002 36.4L48.5002 20C49.8002 18.2 52.8002 18.2 54.1002 20L78.8002 53C80.4002 52.3 81.5002 50.7 81.5002 48.8V7ZM76.3002 53.5L52.2002 21.4C51.8002 20.8 50.8002 20.8 50.4002 21.4L26.3002 53.5H76.3002ZM23.4002 53.5L34.7002 38.4L29.0002 30.7C28.6002 30.1 27.6002 30.1 27.1002 30.7L10.0002 53.5H23.4002ZM25.8002 18.6C25.8002 22.5 22.6002 25.6 18.8002 25.6C14.9002 25.6 11.8002 22.5 11.8002 18.6C11.8002 14.8 14.9002 11.7 18.8002 11.7C22.6002 11.7 25.8002 14.8 25.8002 18.6ZM23.4002 18.6C23.4002 16.1 21.4002 14 18.8002 14C16.2002 14 14.1002 16.1 14.1002 18.6C14.1002 21.2 16.2002 23.3 18.8002 23.3C21.4002 23.3 23.4002 21.2 23.4002 18.6Z" fill="#454B60"/>
</svg>
